<svg viewBox="0 0 128 128" xml:space="preserve" xmlns="http://www.w3.org/2000/svg" enable-background="new 0 0 128 128">
<path d="M103.2 114.6v-91l-5.1-5.1V6.3H29.9v12.2l-5.1 5.1v91h-5.1v5.1h88.6v-5.1h-5.1zM84.3 9.6c2 0 3.6 1.6 3.6 3.6s-1.6 
3.6-3.6 3.6-3.6-1.6-3.6-3.6 1.7-3.6 3.6-3.6zm-10.1 0c2 0 3.6 1.6 3.6 3.6s-1.6 3.6-3.6 3.6-3.6-1.6-3.6-3.6 1.6-3.6 3.6-3.6zM64 
9.6c2 0 3.6 1.6 3.6 3.6S66 16.7 64 16.7s-3.6-1.6-3.6-3.6 1.7-3.5 3.6-3.5zm-10.2 0c2 0 3.6 1.6 3.6 3.6s-1.6 3.6-3.6 3.6-3.6-1.6-3.6-3.6 
1.7-3.6 3.6-3.6zm-10.1 0c2 0 3.6 1.6 3.6 3.6s-1.6 3.6-3.6 3.6-3.6-1.6-3.6-3.6 1.6-3.6 3.6-3.6zm35.6 43.5v10.2H69.1V53.1h10.2zm-10.2-8V34.9h10.2v10.2H69.1zm.2 
26.1h10.2v10.2H69.3V71.2zm28.8-26.9v10.2H88V44.3h10.1zM88 38.8V28.7h10.2v10.2H88v-.1zm10.1 20.7v10.2H88V59.5h10.1zm0 14.8v10.2H88V74.3h10.1zm0 
15.3v10.2H88V89.6h10.1zM48.8 63.2V53.1H59v10.2l-10.2-.1zm9.7 8v10.2H48.4V71.2h10.1zm-9.7-26.1V34.9H59v10.2H48.8zM29.9 28.7H40v10.2H29.9V28.7zm0 
15.6H40v10.2H29.9V44.3zm0 15.2H40v10.2H29.9V59.5zm0 14.5H40v10.2H29.9V74zm0 15.3H40v10.2H29.9V89.3zm24 4.3h20.3v21H53.9v-21z" 
fill="#306ef2" class="fill-60646b"></path></svg>